<svg version="1.1" id="Layer_1" xmlns="http://www.w3.org/2000/svg" xmlns:xlink="http://www.w3.org/1999/xlink" x="0" y="0" viewBox="0 0 114 113" xml:space="preserve" enable-background="new 0 0 114 113"><style type="text/css">.st0{fill:#fff}</style><g><path class="st0" d="M39.3,24.1l-12.9,7.4c-0.4,0.2-0.4,0.7,0,1l30.3,17.4c0.3,0.2,0.8,0.2,1.1,0l12.9-7.4c0.4-0.2,0.4-0.7,0-1 L40.4,24.1C40,24,39.6,24,39.3,24.1z"/><path class="st0" d="M73.8,24.1l-12.9,7.4c-0.4,0.2-0.4,0.7,0,1L74,39.9c0.3,0.2,0.8,0.2,1.1,0L88,32.6c0.4-0.2,0.4-0.7,0-1 l-13.1-7.5C74.5,23.9,74.1,23.9,73.8,24.1z"/><path class="st0" d="M58.6,53.6v14.9c0,0.4,0.5,0.7,0.8,0.5l13.1-7.5c0.2-0.1,0.3-0.3,0.3-0.5V45.8c0-0.4-0.5-0.7-0.8-0.5 l-12.9,7.3C58.8,52.9,58.6,53.3,58.6,53.6z"/><path class="st0" d="M76.4,42.8l12.9-7.4c0.4-0.2,0.8,0.1,0.8,0.5v34.8c0,0.4-0.2,0.8-0.6,1L59.4,88.9c-0.4,0.2-0.8-0.1-0.8-0.5 V73.5c0-0.4,0.2-0.8,0.6-1l16.1-9.2c0.3-0.2,0.6-0.6,0.6-1l0-18.6C75.8,43.4,76,43,76.4,42.8z"/><path class="st0" d="M55.7,53.6l-0.1,15.2c0,0.3-0.3,0.5-0.6,0.4l-15.9-9.1c-0.4-0.2-0.8,0.1-0.8,0.5v18c0,0.4-0.5,0.7-0.8,0.5 l-12.9-7.4c-0.3-0.2-0.6-0.6-0.6-1V35.7c0-0.4,0.5-0.7,0.8-0.5l30.4,17.4C55.5,52.8,55.7,53.2,55.7,53.6z"/><path class="st0" d="M42.1,65.1l13,7.4c0.3,0.2,0.6,0.6,0.6,1v15c0,0.4-0.5,0.7-0.8,0.5l-13-7.4c-0.3-0.2-0.6-0.6-0.6-1v-15 C41.2,65.1,41.7,64.9,42.1,65.1z"/></g></svg>